<?xml version="1.0" encoding="utf-8"?>
<!-- Generator: Adobe Illustrator 24.0.1, SVG Export Plug-In . SVG Version: 6.00 Build 0)  -->
<svg version="1.1" id="Layer_1" xmlns="http://www.w3.org/2000/svg" xmlns:xlink="http://www.w3.org/1999/xlink" x="0px" y="0px"
	 viewBox="0 0 400 400" style="enable-background:new 0 0 400 400;" xml:space="preserve">
<path d="M200,42.5C113,42.5,42.5,113,42.5,200S113,357.5,200,357.5S357.5,287,357.5,200S287,42.5,200,42.5z M300.8,300.8
	c-25.8,25.8-61.4,41.7-100.8,41.7s-75-15.9-100.8-41.7C73.4,275,57.5,239.4,57.5,200s15.9-75,41.7-100.8S160.6,57.5,200,57.5
	s75,15.9,100.8,41.7s41.7,61.4,41.7,100.8S326.6,275,300.8,300.8z M200,183.4c21.3,0,38.5-17.3,38.6-38.6
	c0-21.3-17.3-38.5-38.6-38.5s-38.5,17.3-38.6,38.5C161.5,166.1,178.7,183.3,200,183.4z M221.7,193.4h-43.5
	c-14.2,0-27.1,5.8-36.4,15.1s-15.1,22.2-15.1,36.4v35.8c20.6,8.2,45.9,13.1,73.2,13.1c27.4,0,52.7-4.9,73.2-13.1v-35.8
	c0-14.2-5.8-27.1-15.1-36.4C248.8,199.1,236,193.4,221.7,193.4z"/>
</svg>
